ply
format ascii 1.0
comment written by Chenxi
element vertex 317
property float32 x
property float32 y
property float32 z
property uchar red
property uchar green
property uchar blue
end_header
-0.0949	-0.0208	0.616	106	103	156
-0.0861	-0.000593	0.651	162	133	163
-0.056	0.0329	0.41	143	108	141
-0.0714	-0.0126	0.65	164	122	160
-0.0484	-0.0488	0.693	47	24	53
-0.05	-0.0414	0.731	42	26	53
-0.05	-0.0414	0.731	42	26	53
-0.049	-0.0402	0.729	171	134	168
-0.0509	-0.0356	0.749	48	25	53
-0.0503	-0.0364	0.752	174	140	173
-0.0452	-0.05	0.698	53	37	64
-0.0452	-0.05	0.698	53	37	64
-0.0457	-0.0484	0.71	42	28	54
-0.0464	-0.0462	0.725	175	140	173
-0.0466	-0.0452	0.732	50	23	54
-0.0466	-0.0452	0.732	50	23	54
-0.0483	-0.0405	0.755	170	128	164
-0.0483	-0.0405	0.755	170	128	164
-0.0481	-0.0397	0.764	55	29	58
-0.0489	-0.0365	0.77	169	127	163
-0.0486	-0.0291	0.777	47	29	53
-0.0484	-0.0254	0.763	50	25	54
-0.052	-0.0472	0.873	197	198	216
-0.0532	0.029	0.578	178	132	169
-0.0537	0.025	0.618	144	47	58
-0.0529	0.0243	0.625	144	47	58
-0.0402	-0.0516	1.59	163	66	133
-0.0328	-0.0545	1.03	169	77	144
-0.035	0.031	0.355	160	59	127
-0.0171	-0.0392	0.663	194	104	166
-0.0369	-0.0386	1.41	168	58	131
-0.0324	0.0259	0.438	167	82	139
-0.0266	0.0266	0.432	165	63	129
-0.000513	-0.022	0.363	182	69	149
0.00421	-0.0112	0.248	222	157	211
0.0059	-0.0239	0.395	221	153	210
0.00633	-0.0261	0.414	221	165	212
0.00593	-0.0171	0.329	186	86	158
0.00593	-0.0171	0.329	186	86	158
0.00746	-0.0228	0.389	213	166	208
0.00693	-0.0189	0.353	176	85	152
0.00592	-0.0114	0.279	177	89	149
0.00518	-0.00741	0.245	185	86	150
-0.00355	-0.00813	0.998	111	71	105
0.0146	-0.0228	0.407	179	79	152
0.0147	-0.0189	0.39	167	82	147
0.0155	-0.0212	0.403	174	66	142
0.0166	-0.0234	0.414	214	157	208
0.0155	-0.0181	0.389	164	82	148
0.0172	-0.0186	0.401	178	76	150
0.0173	-0.0192	0.399	177	75	149
0.0191	-0.0197	0.408	166	68	143
0.0191	-0.0197	0.408	166	68	143
0.00521	0.0289	0.3	227	167	221
-0.00885	0.0421	0.451	215	163	212
-0.0109	0.0469	0.458	210	164	213
0.0227	-0.0197	0.418	210	173	216
0.00591	-0.00434	0.431	210	173	216
-0.0136	0.0599	0.472	199	83	168
0.00782	0.0295	0.409	218	175	221
0.00576	0.0307	0.434	218	175	221
0.022	-0.00184	0.375	218	168	217
0.129	-0.0206	0.52	193	196	213
0.129	-0.0206	0.52	193	196	213
0.0779	0.0162	0.189	182	185	204
0.139	-0.00776	0.307	182	185	204
-0.0464	-0.0498	0.695	40	24	51
-0.047	-0.0486	0.701	40	26	51
-0.0497	-0.0357	0.761	38	24	49
-0.0497	-0.0256	0.752	39	24	45
-0.0476	-0.0336	0.798	173	127	164
-0.0497	-0.04	0.912	200	201	219
-0.0333	-0.0133	0.774	197	195	216
-0.05	0.0278	0.575	212	200	220
-0.0394	-0.035	1.14	194	186	207
-0.0402	0.011	0.59	201	192	213
-0.0486	-0.0452	1.8	190	98	161
-0.0378	0.0338	0.454	166	65	131
-0.0346	0.0261	0.444	181	107	158
-0.0346	0.0261	0.444	181	107	158
-0.0329	0.0239	0.436	167	84	140
-0.0329	0.0239	0.436	167	84	140
-0.0324	0.0142	0.624	171	86	141
-0.0238	0.00411	0.33	171	86	141
-0.0337	0.0269	0.442	167	82	139
-0.0268	0.0276	0.422	167	62	129
-0.00452	0.00335	0.0582	213	161	209
0.00537	-0.0128	0.284	205	165	202
0.00803	-0.0206	0.373	209	162	206
0.00803	-0.0206	0.373	209	162	206
0.00712	-0.0143	0.317	204	162	198
0.00892	-0.0189	0.364	175	79	150
0.0136	-0.0235	0.408	219	165	214
0.0308	-0.152	1.67	205	197	218
0.0178	-0.0212	0.41	178	69	150
0.0178	-0.0212	0.41	178	69	150
0.018	-0.0174	0.397	178	124	174
0.018	-0.0167	0.399	195	138	189
0.016	-0.0115	0.372	162	108	157
0.016	-0.0115	0.372	162	108	157
0.00987	0.0319	0.257	160	78	142
0.00987	0.0319	0.257	160	78	142
0.00984	0.0245	0.304	171	89	155
0.00984	0.0245	0.304	171	89	155
0.00983	0.0106	0.375	175	88	156
0.0217	-0.0128	0.402	163	83	146
0.00411	0.0215	0.408	205	168	211
-0.0104	0.0536	0.467	186	84	160
0.0202	-0.00726	0.39	205	170	210
0.0269	-0.0306	0.425	205	200	220
0.0234	-0.011	0.406	170	88	152
0.0219	-0.00668	0.398	197	163	200
0.00933	0.019	0.408	173	80	150
0.011	0.0183	0.409	212	163	208
0.0155	0.0166	0.434	204	196	220
0.0286	-0.00434	0.422	201	196	218
0.0338	-0.0136	0.437	204	199	221
0.16	-0.0506	0.459	185	188	207
-0.189	-0.177	0.446	169	172	189
-0.0925	-0.0139	0.622	53	117	142
-0.0714	-0.00254	0.641	152	116	152
-0.0714	-0.00254	0.641	152	116	152
-0.0522	-0.0463	0.691	169	127	165
-0.0488	-0.0465	0.706	48	34	57
-0.0485	-0.0447	0.723	169	127	165
-0.0449	-0.0477	0.719	172	130	166
-0.0475	-0.0241	0.76	172	124	164
-0.0521	0.0109	0.616	47	18	38
-0.0266	-0.0462	0.82	181	81	151
-0.024	0.00188	0.317	185	111	160
-0.0296	0.0171	0.418	173	90	146
-0.0299	0.0183	0.421	171	86	141
-0.0299	0.0183	0.421	171	86	141
-0.0304	0.0206	0.425	174	86	144
-0.0304	0.0206	0.425	174	86	144
0.00118	-0.053	0.578	188	187	205
0.00757	-0.0245	0.402	187	83	158
0.00757	-0.0245	0.402	187	83	158
0.00734	-0.0168	0.339	212	167	208
-0.0109	-0.0616	0.762	198	195	214
-0.00526	-0.114	1.37	198	195	214
0.0123	-0.0267	0.424	206	163	208
-0.0174	0.0561	0.468	190	74	159
0.0662	-0.158	0.563	188	191	208
-0.00764	0.0399	0.45	214	166	214
-0.00764	0.0399	0.45	214	166	214
-0.00887	0.0425	0.452	208	169	213
-0.0098	0.0449	0.456	204	169	209
0.00279	0.0197	0.398	210	169	211
-0.00186	0.0283	0.423	203	171	210
-0.00316	0.0308	0.43	207	172	214
0.0055	0.0155	0.382	195	160	200
0.0055	0.0155	0.382	195	160	200
0.0152	-0.000717	0.365	201	163	204
0.0166	-0.00342	0.369	199	165	202
0.00189	0.0243	0.414	188	87	163
-0.00899	0.0534	0.468	197	165	202
0.00232	0.0289	0.431	202	171	213
0.0244	-0.0127	0.412	195	167	207
0.0184	0.021	0.337	203	176	211
0.0181	0.00228	0.405	202	161	201
-0.00559	0.0547	0.467	204	168	206
0.0141	0.038	0.29	218	186	225
0.0141	0.0381	0.29	218	186	225
-0.00458	0.0525	0.464	208	171	212
0.0142	0.0296	0.336	209	172	213
0.0142	0.0296	0.336	209	172	213
0.00979	-0.0206	0.724	203	173	209
0.00332	0.033	0.566	205	200	222
0.00702	0.0143	0.655	200	195	217
-7.69e-05	0.0539	0.464	204	201	222
0.00272	0.0528	0.441	204	201	222
0.463	-0.00084	5.56	203	198	220
0.28	-0.0887	3.66	202	197	219
0.107	-0.151	0.547	183	186	203
-0.306	0.074	0.598	171	174	193
-0.0926	-0.0184	0.62	54	128	173
-0.0612	-0.0547	0.63	169	131	168
-0.0716	-0.00228	0.641	163	127	165
-0.0535	-0.0508	0.668	174	132	172
-0.0682	0.0279	0.595	173	135	172
-0.0496	-0.0341	0.766	170	124	161
-0.0496	-0.0341	0.766	170	124	161
-0.0461	-0.0443	0.745	176	130	167
-0.0521	0.0108	0.616	50	21	41
-0.0474	0.00859	0.709	204	199	219
-0.0379	-0.0392	1.22	163	71	134
-0.0359	-0.0263	1.05	169	70	137
-0.0355	-0.052	1.04	174	88	151
-0.0255	-0.0529	0.771	178	110	159
-0.029	-0.0452	0.971	172	69	140
-0.029	-0.0452	0.971	172	69	140
-0.0289	-0.0427	1.02	176	70	142
-0.0289	-0.0427	1.02	176	70	142
-0.0174	-0.0455	0.68	188	113	169
-0.0191	-0.0405	0.782	177	70	140
-0.0241	0.00184	0.319	185	111	160
-0.0327	0.023	0.438	173	85	145
-0.0327	0.023	0.438	173	85	145
0.0343	-0.144	0.621	189	192	209
-0.0133	-0.00109	1.06	109	81	103
0.0417	-0.148	0.599	189	192	209
0.00365	-0.0519	0.571	188	187	205
0.0309	-0.0405	0.197	189	192	209
0.00308	-0.0127	0.245	193	76	157
0.00982	-0.0271	0.424	195	157	198
0.00982	-0.0271	0.424	195	157	198
-0.016	0.0337	0.358	167	112	154
0.011	-0.0178	0.364	184	78	153
0.0135	-0.0118	0.358	201	170	202
0.0163	-0.017	0.39	183	75	151
0.0083	0.032	0.251	195	167	207
-0.013	0.0527	0.465	199	167	204
0.00551	0.0155	0.382	195	160	200
0.00551	0.0155	0.382	195	160	200
0.00407	0.0179	0.39	203	166	209
0.0203	-0.012	0.394	190	162	200
0.0179	-0.00613	0.376	194	168	205
0.0124	0.00467	0.362	200	168	205
0.0097	0.00917	0.367	200	170	208
0.0216	-0.0148	0.403	195	169	206
0.0241	-0.0147	0.414	192	83	164
-0.000126	0.0333	0.44	203	171	210
0.0268	0.017	0.281	201	173	211
0.0197	0.0241	0.273	201	173	211
0.00755	0.019	0.407	201	168	211
0.00755	0.019	0.407	201	168	211
0.0186	-0.000111	0.388	199	171	209
0.0169	0.00309	0.386	196	169	204
0.014	0.0288	0.333	205	175	211
0.0183	0.0063	0.395	201	166	206
-0.00171	0.0447	0.455	208	182	221
0.0143	0.0139	0.4	203	166	209
0.0272	-0.0119	0.421	211	179	216
0.02	0.0039	0.397	201	171	207
-0.000856	0.0464	0.457	186	73	153
0.029	-0.0128	0.426	181	73	149
0.0276	-0.00958	0.42	190	77	159
0.022	0.00276	0.403	191	80	156
0.466	-0.00102	5.59	207	202	224
0.0651	-0.075	0.517	190	191	211
-0.0855	-0.00204	0.628	39	31	46
-0.0832	0.0234	0.607	39	33	47
-0.0687	0.026	0.598	35	26	43
-0.0494	-0.0382	0.754	172	127	166
-0.0475	-0.0386	0.779	173	128	167
-0.0499	-0.0023	0.658	35	27	42
-0.0499	-0.0023	0.658	35	27	42
-0.0487	-0.00458	0.668	183	138	177
-0.0247	-0.0747	0.686	193	196	213
-0.0443	0.0161	0.587	198	194	211
-0.0421	0.0129	0.587	198	190	211
0.00112	-0.0313	0.469	194	76	160
0.0456	-0.152	0.586	188	191	208
0.00358	-0.0188	0.331	194	83	162
0.0113	-0.0239	0.402	186	73	153
0.0113	-0.0206	0.383	198	170	208
0.014	-0.0209	0.398	190	74	155
0.0165	-0.0225	0.411	169	98	158
0.0229	-0.0186	0.416	199	169	207
-0.0211	0.0606	0.443	197	198	218
0.00485	0.0199	0.401	189	75	160
-0.0183	0.0721	0.475	195	196	214
0.016	0.0369	0.293	190	74	155
0.00344	0.0368	0.444	188	75	157
0.016	0.0283	0.339	191	73	157
0.0236	-0.000771	0.406	186	75	152
0.00661	0.0112	0.573	192	76	157
0.0162	0.0132	0.404	191	72	154
0.0128	0.0191	0.412	192	73	157
0.104	-0.193	0.561	185	188	207
0.106	-0.166	0.554	185	188	205
0.111	-0.0901	0.524	189	192	209
0.128	0.0228	0.527	186	187	205
-0.199	-0.155	0.711	183	186	205
-0.0725	-0.0143	0.65	36	29	45
0.00536	-0.936	2.65	181	184	203
0.0127	-0.0141	0.196	196	76	165
0.0203	-0.017	0.404	191	79	161
0.00365	0.027	0.426	185	80	162
0.0106	0.0225	0.418	187	70	151
0.0947	0.105	0.534	190	193	210
-0.154	0.0892	0.419	178	183	202
-0.0744	-0.0042	0.642	29	26	43
-0.0744	-0.0042	0.642	29	26	43
-0.0732	-8.51e-05	0.635	161	123	162
-0.0711	0.0106	0.625	154	47	115
-0.0588	0.0112	0.619	162	116	155
-0.00315	-0.0323	0.499	169	53	128
0.0556	-0.157	0.567	185	191	207
0.00269	0.0223	0.408	203	164	208
0.00954	0.0111	0.376	167	115	164
0.00577	0.0177	0.392	196	168	208
-0.00681	0.0431	0.455	198	170	210
0.254	0.0563	1.69	196	197	215
-0.0744	0.00449	0.631	31	29	50
0.0218	-0.0124	0.402	145	74	134
-0.00066	0.0416	0.45	192	74	158
-0.0213	0.0933	0.482	193	196	213
-0.0482	0.000188	0.648	127	33	49
0.00261	-0.0513	0.57	190	187	204
0.00958	-0.0327	0.46	187	74	156
-0.053	0.134	0.478	185	190	209
-0.0098	0.0618	0.472	194	75	159
0.029	-0.0195	0.433	191	75	158
-0.194	-0.0696	0.643	185	188	207
-0.0478	0.00087	0.644	154	33	48
0.0087	-0.129	0.597	188	191	208
-0.0496	-0.0262	0.748	172	135	169
-0.0608	0.0129	0.601	160	115	154
0.0114	-0.0431	0.514	200	199	217
0.0734	-0.11	0.538	188	191	208
0.0119	0.0624	0.459	195	198	217
-0.0489	0.111	0.472	190	193	210
0.0174	0.0375	0.444	198	199	219
-0.0339	0.00573	0.501	179	118	162
-0.0339	0.00573	0.501	179	118	162
