ply
format ascii 1.0
comment written by Chenxi
element vertex 985
property float32 x
property float32 y
property float32 z
property uchar red
property uchar green
property uchar blue
end_header
-0.894	0.556	3.97	167	139	118
-0.798	0.41	3.67	141	123	109
-0.908	1.11	5.2	177	138	107
-0.79	0.853	4.65	122	87	65
-1.35	2.52	8.26	193	147	111
-0.66	0.525	3.96	130	113	97
-0.752	0.86	4.68	163	133	109
-0.745	0.867	4.69	165	135	111
-0.655	0.732	4.41	139	120	103
-0.655	0.732	4.41	139	120	103
-0.951	1.77	6.61	192	148	111
-0.867	1.68	6.42	190	151	112
-0.566	1.03	5.04	166	135	107
-0.698	2.76	8.6	213	168	129
-0.324	0.45	4.43	134	121	115
-0.754	3.76	10.6	220	177	135
-0.252	0.173	4.14	4	3	1
-0.252	0.173	4.14	4	3	1
-0.234	0.855	5	55	82	65
-0.25	1.32	5.55	138	111	90
-0.268	1.77	6.46	215	170	131
-0.408	3.69	10.3	226	177	136
-0.466	4.43	11.8	219	168	125
-0.156	0.206	4.26	6	2	0
-0.407	4.57	12.1	217	168	128
-0.191	1.56	6.01	221	168	118
-0.127	0.0217	4.05	3	2	0
-0.197	3.01	8.88	232	181	134
-0.057	0.242	4.36	17	9	7
-0.057	0.242	4.36	17	9	7
-0.0228	0.479	4.65	130	119	123
-0.024	0.723	4.93	150	123	112
-0.000669	0.26	4.4	10	1	2
-0.000669	0.26	4.4	10	1	2
-0.041	5.52	13.7	233	183	146
0.00667	0.477	4.66	123	117	121
0.0178	0.487	4.67	123	110	93
0.0148	7.4	17.4	216	164	124
0.0619	7.17	16.8	222	175	133
0.0462	0.468	4.65	26	13	7
0.0451	0.176	4.32	120	109	103
0.129	4.84	12.2	228	174	128
0.083	0.477	4.67	17	3	2
0.0811	0.221	4.38	63	87	74
0.082	0.276	4.44	119	114	110
0.0835	0.266	4.43	16	0	0
0.0835	0.266	4.43	16	0	0
0.0874	0.214	4.37	11	7	6
0.0905	0.269	4.43	144	131	125
0.0905	0.269	4.43	144	131	125
0.15	1.53	5.78	227	170	115
0.351	6.2	14.7	235	184	139
0.133	0.198	4.36	54	70	59
0.145	0.45	4.63	137	126	130
0.163	0.561	4.75	22	8	5
0.159	0.362	4.53	146	132	132
0.469	6.99	16.2	247	193	146
0.198	1.46	5.62	143	104	75
0.197	0.81	5	21	5	6
0.199	0.367	4.53	139	120	116
0.314	2.42	7.4	221	167	120
0.256	0.84	5	147	129	129
0.256	0.84	5	147	129	129
0.229	0.0667	4.21	63	68	62
0.229	0.0796	4.22	130	117	108
0.241	0.0544	4.19	15	1	1
0.268	0.565	4.72	14	0	0
0.308	0.716	4.85	141	120	115
0.277	0.108	4.24	29	9	8
0.326	0.839	4.96	119	107	81
1	7.63	17	248	194	148
0.29	0.00337	4.13	100	99	94
0.333	0.784	4.9	17	6	0
0.331	0.603	4.72	29	14	9
1.11	7.95	17.5	114	60	16
0.351	0.326	4.43	125	105	104
0.355	0.342	4.44	146	131	134
0.352	0.107	4.21	141	126	131
0.402	0.874	4.91	135	126	97
1.65	10.5	22	228	176	128
0.41	0.798	4.84	128	128	92
0.371	0.0204	4.12	70	83	74
0.371	0.0204	4.12	70	83	74
0.369	-0.0457	4.05	6	8	5
0.369	-0.0457	4.05	6	8	5
0.408	0.32	4.39	148	130	128
0.435	0.602	4.63	25	5	7
0.435	0.602	4.63	25	5	7
0.434	0.463	4.5	161	145	148
0.435	0.286	4.33	17	0	0
1.47	7.1	15.5	247	194	152
0.47	0.29	4.29	33	12	17
1.56	7.46	16.1	246	192	145
1.55	7.35	15.9	155	101	55
1.55	7.35	15.9	155	101	55
1.59	7.5	16.1	243	189	142
1.46	6.5	14.3	252	199	155
1.67	7.64	16.3	250	196	152
0.52	0.262	4.2	178	157	154
1.61	6.27	13.7	234	180	136
0.551	0.243	4.13	182	154	150
2.13	8.42	17.4	243	190	150
1.56	5.65	12.5	253	201	154
1.91	7.18	15.2	255	202	158
1.57	5.52	12.3	246	192	148
1.57	5.52	12.3	246	192	148
2.13	7.47	15.5	237	187	150
2.53	9.2	18.4	122	73	33
2.53	9.2	18.4	122	73	33
0.821	1.6	5.43	211	158	116
1.85	5.3	11.5	226	174	127
2.14	6.1	12.7	185	133	83
2.22	6.24	12.9	244	190	144
2.22	6.24	12.9	244	190	144
1.88	4.68	10.3	247	189	141
1.17	1.85	5.54	235	184	141
2.15	4.81	10.1	158	104	60
1.98	4.03	8.8	223	170	126
2.53	5.55	11.1	240	182	142
2.19	4.16	8.75	241	188	144
3.94	8.66	15.2	216	168	128
2.51	4.74	9.41	236	187	146
1.69	2.49	6.1	121	69	30
2.18	3.34	7.03	215	166	125
3.13	5.69	10.3	133	83	48
2.26	3.52	7.28	222	178	141
2.51	4.01	7.83	229	178	135
3.19	5.53	9.81	223	178	137
3.33	5.58	9.59	224	176	136
2.34	2.96	5.83	146	101	68
1.94	2.01	4.58	188	144	109
1.71	1.41	3.74	227	179	143
2.47	2.99	5.51	156	113	79
2.26	2.48	4.83	204	165	134
2.15	2.23	4.5	208	165	133
2.23	2.38	4.65	217	173	144
2.23	2.38	4.65	217	173	144
1.81	1.48	3.65	214	170	133
2.3	2.42	4.55	210	170	135
2.45	2.64	4.57	142	103	74
2.1	1.88	3.75	188	144	109
2.1	1.88	3.75	188	144	109
2.19	2.07	3.91	237	189	153
-1.07	-0.0513	2.15	167	123	98
-1.12	0.209	2.93	168	121	91
-0.528	-0.507	1.57	97	179	229
-1.19	0.756	4.33	118	80	57
-0.929	0.304	3.34	175	135	109
-1.19	0.783	4.4	121	79	57
-1.11	0.643	4.09	164	123	93
-1.31	1.06	5.02	191	147	112
-1.17	1	4.92	188	148	122
-0.871	0.457	3.75	174	148	133
-1.04	0.894	4.71	183	146	117
-0.833	0.45	3.75	146	124	111
-1.12	1.11	5.18	177	137	111
-1.14	1.16	5.3	185	146	117
-1.37	1.82	6.75	174	134	99
-0.75	0.375	3.6	137	125	113
-0.852	0.713	4.34	171	139	116
-1.21	1.64	6.34	186	142	105
-0.8	0.66	4.23	159	130	112
-0.842	0.838	4.62	159	125	98
-1.14	1.67	6.42	208	160	122
-0.638	0.334	3.55	132	125	115
-0.682	0.529	3.97	137	124	107
-0.745	0.727	4.38	131	108	90
-0.911	1.26	5.54	141	97	68
-0.792	0.971	4.92	172	137	109
-0.863	1.19	5.4	143	96	66
-0.706	0.737	4.41	147	126	107
-0.822	1.1	5.19	182	138	103
-0.676	0.67	4.27	144	127	111
-0.676	0.67	4.27	144	127	111
-1.29	3.09	9.44	186	136	101
-0.814	1.54	6.13	177	135	97
-0.965	2.13	7.38	206	158	120
-0.913	1.99	7.08	197	152	111
-0.913	1.99	7.08	197	152	111
-0.959	2.28	7.69	204	157	115
-0.47	0.00306	3.61	40	28	16
-0.47	0.247	3.97	126	107	90
-0.47	0.247	3.97	126	107	90
-0.448	0.212	3.95	141	132	135
-0.958	2.99	9.14	135	81	43
-0.958	2.99	9.14	135	81	43
-0.485	0.695	4.57	53	84	69
-0.454	0.747	4.68	96	118	106
-0.454	0.747	4.68	96	118	106
-0.361	-0.118	3.62	102	104	101
-0.438	0.773	4.74	95	118	108
-0.435	0.758	4.72	102	122	110
-0.42	0.645	4.58	56	84	70
-0.42	0.657	4.6	109	126	116
-0.827	3.04	9.22	201	154	112
-0.326	-0.00692	3.82	115	107	105
-0.385	0.839	4.88	59	85	72
-0.43	1.4	5.78	185	142	107
-0.716	3.37	9.84	200	149	106
-0.323	0.45	4.44	134	121	113
-0.313	0.468	4.47	130	112	108
-0.48	1.97	6.94	210	161	120
-0.499	2.4	7.79	210	163	121
-0.274	0.342	4.35	35	25	23
-0.522	2.69	8.4	209	162	120
-0.292	0.949	5.09	61	89	77
-0.236	0.374	4.42	106	97	92
-0.248	0.587	4.67	141	121	112
-0.248	0.977	5.15	63	90	73
-0.866	7.31	17.7	212	167	128
-0.223	0.791	4.94	111	125	112
-0.176	0.0456	4.05	116	106	105
-0.305	2.1	7.12	206	155	110
-0.228	1.41	5.72	162	111	64
-0.192	0.849	5.03	60	87	70
-0.14	0.0898	4.13	118	109	110
-0.141	0.215	4.29	15	10	7
-0.372	4.47	11.8	234	185	142
-0.119	0.303	4.41	22	10	10
-0.138	0.925	5.13	115	132	114
-0.102	0.0251	4.07	106	97	98
-0.11	0.691	4.88	142	115	104
-0.0841	0.705	4.91	143	119	107
-0.213	5.13	13	216	166	129
-0.0572	0.0674	4.15	8	0	0
-0.0572	0.0674	4.15	8	0	0
-0.0579	0.224	4.34	26	14	16
-0.0353	0.49	4.66	12	0	0
-0.0322	0.465	4.64	25	10	7
-0.0176	0.63	4.83	145	124	123
-0.0076	0.0936	4.2	114	104	102
0.00965	0.486	4.67	24	6	4
0.0244	0.975	5.21	32	25	15
0.0322	1.11	5.36	14	4	0
0.0331	-0.0372	4.06	8	3	9
0.0365	0.15	4.28	125	122	129
0.0483	1.08	5.32	30	10	3
0.0519	-0.0101	4.1	37	64	57
0.0519	-0.0101	4.1	37	64	57
0.0681	0.713	4.92	141	122	108
0.0631	0.208	4.36	18	13	9
0.0764	-0.00931	4.11	6	6	6
0.192	5.21	12.9	249	195	149
0.233	5.74	13.9	246	192	146
0.104	0.205	4.36	59	72	65
0.105	0.166	4.32	45	63	51
0.112	0.211	4.37	9	5	4
0.121	0.435	4.62	18	4	4
0.133	0.438	4.62	131	115	116
0.121	0.00048	4.13	6	5	3
0.121	0.00048	4.13	6	5	3
0.13	0.205	4.36	11	11	9
0.13	0.205	4.36	11	11	9
0.13	0.184	4.34	64	74	66
0.153	0.667	4.87	28	3	6
0.425	6.67	15.6	241	187	143
0.158	0.387	4.56	32	14	10
0.478	6.75	15.7	248	194	148
0.523	7	16.2	123	69	25
0.219	1.39	5.48	80	51	33
0.191	0.0973	4.24	144	128	131
0.65	7.56	17.1	179	124	70
0.227	0.866	5.04	118	106	84
0.236	0.828	5	38	20	8
0.242	0.838	5.01	132	115	99
0.237	0.642	4.82	136	121	124
0.237	0.642	4.82	136	121	124
0.247	0.936	5.1	37	20	12
0.247	0.936	5.1	37	20	12
0.276	1.63	5.91	215	155	101
0.271	0.664	4.82	141	125	128
0.234	-0.156	3.95	9	5	6
0.291	0.586	4.73	24	6	4
0.284	0.298	4.44	23	9	9
0.284	0.298	4.44	23	9	9
0.31	0.868	4.99	146	130	131
0.318	1.05	5.16	39	19	21
0.318	1.05	5.16	39	19	21
0.327	1.16	5.27	144	116	113
0.299	0.393	4.53	26	5	4
0.298	0.334	4.47	146	133	140
0.298	0.334	4.47	146	133	140
0.276	-0.0511	4.07	140	135	139
0.338	1.11	5.21	160	139	136
0.309	0.36	4.49	148	132	132
0.322	0.16	4.28	31	11	10
0.315	0.00182	4.12	29	17	17
0.349	0.349	4.46	34	15	11
0.33	0.00297	4.11	14	0	0
1.2	7.7	16.9	234	181	141
0.352	0.165	4.27	41	20	19
0.352	0.165	4.27	41	20	19
0.367	0.332	4.43	148	124	124
0.367	0.332	4.43	148	124	124
1.14	7.02	15.7	255	203	153
0.359	0.123	4.22	145	133	135
1.44	8.55	18.4	233	181	141
0.401	0.323	4.39	42	16	17
1.22	6.34	14.3	254	202	162
1.22	6.34	14.3	254	202	162
0.439	0.479	4.51	153	133	135
1.5	7.62	16.5	246	188	142
1.5	7.62	16.5	246	188	142
0.455	0.275	4.3	34	10	8
0.475	0.271	4.27	159	135	135
1.5	6.79	14.8	255	202	163
1.59	6.94	15	247	198	157
1.64	7.01	15.1	255	204	163
1.98	8.8	18.3	255	206	169
1.69	7.11	15.3	252	201	156
1.76	7.24	15.5	247	192	151
1.79	7.37	15.7	124	72	35
2.27	9.26	18.9	240	187	145
1.54	5.49	12.3	229	174	133
2	7.54	15.8	247	191	144
2.41	9.47	19.1	255	202	163
1.94	7.22	15.2	242	189	147
2.08	7.42	15.4	253	198	157
2.3	7.97	16.3	254	202	155
2.41	8.12	16.4	255	199	161
2.16	6.03	12.6	255	201	156
2.16	6.03	12.6	255	201	156
2.19	6.07	12.6	248	194	147
2.09	5.08	10.8	156	101	45
2.13	5.12	10.8	148	92	41
2.13	5.12	10.8	148	92	41
2.25	5.18	10.7	228	171	126
2.99	6.84	13	198	154	119
2.09	4.07	8.71	245	190	149
2.15	4.13	8.73	240	187	143
2.54	5.02	9.97	211	162	119
2.54	5.02	9.97	211	162	119
4.12	9.06	15.7	231	182	141
2.08	3.41	7.36	225	176	133
2.37	4.17	8.46	238	185	143
2	3.14	6.93	235	184	141
2.08	3.21	6.94	181	132	91
2.26	3.36	6.92	219	170	129
3.4	5.98	10.4	237	185	146
2.96	4.84	8.75	106	57	25
2.89	4.66	8.46	218	174	139
3.01	4.62	8.11	151	103	65
3.33	5.2	8.66	203	162	134
2.43	2.96	5.58	220	177	142
2.25	2.41	4.67	196	160	128
2.26	2.42	4.67	215	176	143
2.28	2.42	4.62	217	176	146
2.28	2.4	4.54	205	164	134
2.37	2.44	4.29	189	149	123
-1.11	0.148	2.75	172	127	98
-1.15	0.242	2.99	179	136	101
-1.13	0.234	2.99	155	108	78
-1.14	0.313	3.2	184	142	104
-1.05	0.318	3.3	178	134	105
-1.2	0.579	3.88	217	169	131
-0.907	0.188	3.07	182	138	109
-0.847	0.124	2.96	163	135	121
-1.04	0.51	3.8	187	146	114
-1.1	0.724	4.29	152	106	80
-1.47	1.6	6.22	181	138	106
-1.07	0.81	4.5	173	138	110
-1.07	0.81	4.5	173	138	110
-1.2	1.12	5.2	135	95	70
-1.21	1.15	5.24	187	150	123
-1.22	1.21	5.39	158	113	80
-1.11	1.01	4.97	178	141	114
-1.1	1.03	5	181	146	118
-1.1	1.03	5	181	146	118
-1.14	1.13	5.22	178	139	108
-0.779	0.35	3.54	145	123	109
-1.05	0.972	4.88	178	139	110
-1.16	1.38	5.78	193	156	127
-0.746	0.409	3.68	130	116	105
-0.746	0.409	3.68	130	116	105
-0.72	0.349	3.55	133	125	114
-0.916	0.833	4.6	158	126	101
-1.21	1.58	6.22	110	63	37
-1.21	1.58	6.22	110	63	37
-0.898	0.912	4.78	172	141	113
-0.702	0.483	3.86	119	105	92
-1.08	1.53	6.13	190	150	115
-0.652	0.411	3.71	137	129	116
-0.619	0.388	3.67	131	124	114
-1.35	2.75	8.73	185	137	101
-0.783	1.04	5.06	173	136	107
-0.79	1.13	5.26	154	109	76
-0.664	0.855	4.67	149	127	104
-0.536	0.57	4.28	52	83	67
-0.512	0.527	4.28	99	117	105
-0.443	0.678	4.59	50	84	67
-0.443	0.678	4.59	50	84	67
-0.362	-0.0474	3.72	111	103	101
-1.12	4.63	12.5	140	90	53
-0.353	0.0317	3.84	30	19	15
-0.312	0.469	4.48	136	118	114
-0.326	0.758	4.83	115	130	125
-0.287	0.327	4.32	105	113	90
-0.271	0.158	4.11	23	18	15
-0.271	0.158	4.11	23	18	15
-0.501	2.79	8.57	174	125	92
-0.501	2.79	8.57	174	125	92
-0.247	0.601	4.7	46	27	20
-0.256	0.963	5.13	118	136	124
-0.475	3.37	9.72	212	165	123
-0.219	0.615	4.73	49	29	22
-0.185	0.0383	4.03	7	0	0
-0.233	0.983	5.17	127	132	125
-0.182	0.00645	3.99	11	6	3
-0.182	0.00645	3.99	11	6	3
-0.204	0.589	4.72	138	121	111
-0.178	0.219	4.27	31	18	12
-0.203	0.836	5	123	133	125
-0.181	0.637	4.78	137	114	106
-0.171	0.57	4.7	134	114	103
-0.171	0.57	4.7	134	114	103
-0.186	0.994	5.2	139	140	135
-0.168	0.661	4.82	137	115	104
-0.15	0.219	4.29	96	103	72
-0.15	0.219	4.29	96	103	72
-0.147	0.852	5.04	136	139	132
-0.121	0.668	4.84	139	116	102
-0.121	0.682	4.86	138	114	104
-0.0867	0.0258	4.08	14	8	8
-0.309	5.37	13.6	238	181	128
-0.0606	0.214	4.33	104	109	79
-0.0606	0.214	4.33	104	109	79
-0.0604	0.41	4.56	29	15	14
-0.0529	1.03	5.27	131	137	123
-0.0529	1.03	5.27	131	137	123
-0.0355	0.912	5.14	118	126	115
-0.0355	0.912	5.14	118	126	115
-0.0303	0.624	4.82	33	8	3
-0.025	0.443	4.61	31	17	8
-0.022	0.133	4.25	30	15	8
-0.022	0.375	4.53	28	12	12
-0.0129	0.933	5.17	124	130	120
-0.00401	0.67	4.88	52	27	22
-0.00401	0.67	4.88	52	27	22
-0.00653	1.06	5.31	130	136	124
-0.00653	1.06	5.31	130	136	124
0.00211	0.906	5.13	118	132	115
0.00211	0.906	5.13	118	132	115
0.0127	0.506	4.69	38	24	15
-0.0337	9.58	21.6	204	155	114
0.0229	0.725	4.94	39	16	10
0.0229	0.725	4.94	39	16	10
0.0268	0.743	4.96	140	116	104
0.0415	0.527	4.72	31	13	9
0.0415	0.527	4.72	31	13	9
0.0474	1.14	5.39	34	13	8
0.05	1.02	5.26	38	19	15
0.0575	0.216	4.37	126	117	110
0.0699	0.715	4.93	137	118	103
0.0814	1.42	5.6	99	71	49
0.0814	1.42	5.6	99	71	49
0.0783	0.218	4.38	69	93	79
0.103	0.368	4.55	23	18	15
0.0989	0.0323	4.17	4	3	1
0.0989	0.0323	4.17	4	3	1
0.107	0.223	4.38	52	72	63
0.118	0.567	4.77	27	12	9
0.381	7.17	16.6	255	198	160
0.144	0.459	4.64	28	15	9
0.143	0.379	4.56	21	5	5
0.147	0.53	4.73	36	15	12
0.147	0.418	4.6	3	1	6
0.152	0.356	4.53	36	12	10
0.152	0.356	4.53	36	12	10
0.161	0.528	4.71	130	118	120
0.17	0.702	4.9	134	111	103
0.172	0.548	4.74	25	12	4
0.165	0.056	4.2	4	3	1
0.175	0.0607	4.2	10	6	5
0.62	7.7	17.4	255	205	157
0.227	0.866	5.04	118	106	84
0.26	1.69	6.03	228	168	114
0.237	0.459	4.63	21	7	7
0.237	0.459	4.63	21	7	7
0.283	0.92	5.06	23	5	1
0.288	1.36	5.38	84	51	34
0.24	-0.161	3.95	240	180	154
0.295	0.741	4.88	34	11	5
1.08	8.77	19.1	236	182	135
0.303	0.199	4.33	124	106	102
0.309	0.191	4.32	35	20	17
0.306	-0.147	3.97	195	161	149
1.59	10.8	22.6	241	187	141
0.379	0.322	4.41	147	127	128
0.379	0.322	4.41	147	127	128
0.363	0.0472	4.15	139	120	116
1.38	8.06	17.5	247	198	158
1.38	8.06	17.5	247	198	158
0.281	-0.379	3.04	223	166	147
1.45	8.23	17.7	255	205	165
1.45	8.23	17.7	255	205	165
0.415	0.316	4.37	39	18	15
1.55	8.02	17.2	250	192	152
1.55	8.02	17.2	250	192	152
1.59	8.04	17.2	253	198	157
0.46	0.284	4.3	164	143	148
0.527	0.242	4.17	72	48	38
1.96	7.54	15.8	255	199	154
1.89	5.47	11.8	223	169	125
1.89	5.47	11.8	223	169	125
2.49	7.77	15.6	244	190	144
2.22	5.86	12.2	232	175	130
2.25	5.38	11.1	236	182	136
1.97	4.24	9.21	244	187	142
1.97	4.24	9.21	244	187	142
2.1	3.78	8.11	238	183	144
2.03	3.43	7.47	206	157	116
3.84	8.19	14.4	234	185	144
3.84	8.19	14.4	234	185	144
3.41	6.87	12.4	222	171	128
2.4	4.24	8.55	193	144	101
2.33	4.04	8.26	216	167	124
0.961	0.481	3.12	225	170	131
2.73	4.81	9.18	225	173	133
2.01	2.88	6.34	219	167	127
1.17	0.809	3.49	235	176	132
2.9	4.68	8.52	215	173	133
2.81	4.28	7.78	222	177	136
2.64	3.62	6.65	208	163	122
1.92	2	4.59	213	167	131
2.58	3.34	6.1	215	172	138
1.85	1.7	4.12	216	171	132
2.13	2.19	4.5	203	160	126
2.13	2.19	4.5	203	160	126
2.12	2.08	4.2	214	170	133
2.08	1.91	3.89	234	191	159
1.96	1.62	3.53	216	170	134
1.63	0.961	2.88	195	159	135
2.1	1.9	3.77	217	173	138
-1.05	-0.171	1.65	143	114	106
-1.13	-0.0671	1.86	161	125	103
-1.08	-0.0583	2.09	157	112	89
-1.12	0.0144	2.29	166	122	97
-1.02	-0.0832	2.14	157	119	100
-1.13	0.0771	2.5	172	128	99
-1.01	0.0122	2.47	175	130	97
-1.17	0.218	2.91	164	119	86
-1.01	0.0445	2.58	179	136	104
-1.2	0.315	3.15	206	164	126
-1.13	0.234	2.99	155	108	78
-1.15	0.282	3.11	172	129	94
-0.991	0.0857	2.71	173	128	97
-0.999	0.0976	2.74	180	135	102
-1.12	0.378	3.41	166	122	87
-1.08	0.357	3.38	188	145	111
-1.08	0.357	3.38	188	145	111
-0.987	0.227	3.12	181	137	108
-1.29	0.854	4.52	189	148	118
-1.29	0.854	4.52	189	148	118
-0.94	0.303	3.34	179	139	113
-1.28	0.918	4.69	185	146	115
-0.933	0.318	3.38	183	143	117
-1.21	0.839	4.51	171	134	107
-0.989	0.53	3.87	184	145	116
-0.699	0.134	3.06	153	139	128
-1.03	0.922	4.77	177	140	113
-0.78	0.364	3.56	151	129	115
-0.784	0.382	3.61	118	100	88
-1.06	1.02	5	183	148	120
-0.656	0.173	3.17	141	131	121
-0.718	0.337	3.53	142	132	122
-0.925	0.853	4.64	176	140	114
-1.15	1.43	5.89	193	153	118
-0.662	0.359	3.59	119	115	106
-0.645	0.362	3.6	133	126	118
-1.29	2.26	7.69	172	124	88
-1.28	2.32	7.82	168	122	86
-1.07	1.84	6.78	199	157	119
-1.02	1.82	6.73	193	153	118
-0.647	0.76	4.47	125	104	85
-0.664	0.856	4.68	148	126	103
-0.807	1.58	6.2	187	143	104
-0.6	0.955	4.88	122	91	70
-0.504	0.946	4.86	102	81	62
-0.498	0.988	4.94	145	121	97
-0.465	0.731	4.65	116	129	122
-0.554	1.41	5.81	195	152	110
-0.564	2.38	7.78	202	157	116
-0.596	2.69	8.42	195	150	111
-0.301	0.331	4.31	38	28	26
-0.305	0.557	4.59	68	49	43
-0.279	0.951	5.1	123	130	123
-0.253	0.646	4.75	136	118	108
-0.253	0.646	4.75	136	118	108
-0.197	0.0123	3.98	106	102	103
-0.208	0.629	4.75	140	120	109
-0.201	0.572	4.69	98	79	72
-0.201	0.572	4.69	98	79	72
-0.174	0.586	4.72	41	21	14
-0.247	2.59	8.06	197	145	97
-0.135	0.66	4.83	97	72	65
-0.0935	0.0899	4.16	18	9	10
-0.0804	0.681	4.87	43	19	7
-0.0619	0.456	4.62	37	25	13
-0.0649	0.889	5.11	131	134	125
-0.0381	0.449	4.61	109	114	82
-0.0355	0.912	5.14	118	126	115
-0.0208	0.709	4.92	89	65	55
-0.0334	9.59	21.7	204	155	114
0.0563	0.215	4.37	125	114	108
0.0997	0.529	4.73	34	14	15
0.0984	0.0323	4.16	10	9	7
0.0984	0.0323	4.16	10	9	7
0.12	0.745	4.95	136	112	102
0.12	0.745	4.95	136	112	102
0.13	0.231	4.4	17	7	6
0.163	0.331	4.5	25	5	4
0.178	0.422	4.59	124	115	118
0.177	0.233	4.39	131	126	107
0.191	-0.137	3.98	39	24	27
0.234	0.881	5.05	38	21	11
0.215	0.0888	4.24	19	8	4
0.293	0.997	5.14	16	3	0
0.262	0.127	4.27	129	119	128
0.291	0.0118	4.14	26	11	8
0.358	0.519	4.62	24	6	4
0.368	0.0276	4.13	23	12	10
0.368	-0.155	3.93	10	10	8
0.397	0.0139	4.09	23	13	11
1.32	5.91	13.3	253	189	141
1.43	5.15	11.7	238	184	137
1.42	2.53	6.55	238	177	132
1.64	3.05	7.29	202	153	110
0.976	0.902	3.91	223	171	132
1.08	1.09	4.15	242	190	151
1.85	3.15	7.18	242	185	140
3.22	6.84	12.6	184	135	94
3.06	6.39	12	224	171	129
1.79	2.65	6.25	249	191	145
2.11	3.49	7.48	174	125	85
3.04	5.71	10.5	218	165	123
1.85	2.68	6.22	251	190	145
2.33	3.44	6.95	223	171	131
2.09	2.85	6.15	207	156	111
2.76	4.42	8.22	215	166	126
2.67	4	7.48	218	170	132
3.06	4.72	8.24	209	165	128
1.83	1.81	4.38	181	136	97
2.35	2.92	5.7	213	169	132
2.28	2.41	4.54	206	165	135
2.06	1.9	3.94	217	174	142
-1.16	0.00364	2.13	162	121	93
-1.03	-0.134	1.9	152	116	100
-1.12	-0.033	2.1	156	112	87
-1.12	-0.033	2.1	156	112	87
-0.93	-0.22	1.82	169	137	112
-0.976	-0.108	2.13	144	112	97
-1.11	0.0924	2.58	170	126	99
-1.09	0.0615	2.52	168	127	99
-1.17	0.275	3.08	176	136	100
-1.07	0.147	2.81	169	124	93
-1.02	0.103	2.74	169	122	92
-1.02	0.112	2.75	177	134	102
-0.95	0.0155	2.56	162	130	115
-0.95	0.0155	2.56	162	130	115
-1.02	0.125	2.8	181	136	105
-1.14	0.298	3.17	170	124	88
-1.15	0.326	3.23	183	138	99
-0.98	0.0842	2.72	183	138	107
-0.932	0.023	2.61	150	122	108
-0.848	-0.0729	2.42	169	143	128
-0.884	0.00223	2.6	160	131	115
-0.976	0.199	3.04	184	141	109
-1.22	0.586	3.88	208	164	127
-0.973	0.239	3.15	181	140	110
-0.825	0.0707	2.83	166	139	122
-0.825	0.0707	2.83	166	139	122
-1.18	0.722	4.24	177	141	115
-0.957	0.395	3.56	177	136	108
-0.784	0.0726	2.87	171	144	127
-1.16	0.878	4.63	181	141	115
-0.979	0.552	3.92	181	146	124
-0.865	0.413	3.64	175	140	118
-0.737	0.164	3.12	148	131	123
-0.737	0.165	3.12	148	131	123
-0.787	0.319	3.46	155	129	114
-1.2	1.25	5.49	196	159	132
-1.2	1.25	5.49	196	159	132
-0.77	0.38	3.61	146	132	119
-0.783	0.425	3.7	120	107	98
-0.936	0.826	4.57	171	140	112
-0.652	0.162	3.15	135	125	115
-0.681	0.288	3.43	111	102	95
-0.681	0.288	3.43	111	102	95
-0.8	0.67	4.25	158	129	111
-0.64	0.346	3.56	106	99	89
-0.64	0.346	3.56	106	99	89
-0.658	0.489	3.87	138	126	114
-1.33	2.54	8.31	181	137	100
-0.642	0.655	4.24	145	129	114
-0.673	0.768	4.47	122	99	81
-0.61	0.917	4.8	148	126	102
-0.61	0.917	4.8	148	126	102
-1.03	2.58	8.33	205	156	113
-0.976	2.46	8.07	202	154	114
-0.52	1.11	5.19	168	133	103
-0.347	-0.0459	3.74	111	105	105
-0.367	0.476	4.42	135	118	110
-0.31	0.0705	3.95	125	115	113
-0.374	0.837	4.89	123	128	124
-0.262	-0.0822	3.8	110	108	113
-0.328	1.91	6.74	200	151	110
-0.417	3.57	10.1	219	170	130
-0.186	0.567	4.69	135	117	107
-0.186	0.567	4.69	135	117	107
-0.199	1.5	5.91	205	157	111
-0.112	0.0556	4.11	118	107	101
-0.105	0.0746	4.13	119	111	109
-0.104	0.754	4.95	144	120	108
-0.104	0.754	4.95	144	120	108
-0.0518	0.72	4.93	140	118	105
-0.00721	0.773	4.99	140	117	103
-0.00721	0.773	4.99	140	117	103
0.0289	0.512	4.7	139	124	129
0.0286	0.159	4.3	36	20	21
0.0286	0.159	4.3	36	20	21
0.0931	0.246	4.41	104	113	86
0.295	7.23	16.8	108	52	19
0.141	0.717	4.92	139	119	110
0.141	0.717	4.92	139	119	110
0.136	0.421	4.6	17	9	7
0.143	0.199	4.36	25	15	13
0.483	7.71	17.6	195	135	99
0.306	2.94	8.45	211	160	117
0.2	0.634	4.82	32	18	17
0.211	0.469	4.64	21	12	7
0.216	0.626	4.8	137	122	127
0.123	-0.449	2.77	88	111	125
0.355	2.99	8.47	218	164	117
0.226	0.61	4.79	47	26	23
0.245	0.0765	4.22	130	117	111
0.806	6.7	15.3	223	169	123
0.272	0.209	4.35	27	13	13
0.272	0.209	4.35	27	13	13
0.322	0.779	4.9	30	15	10
0.285	0.0682	4.2	33	13	12
1.02	7.18	16.1	243	182	135
1.02	7.18	16.1	243	182	135
0.37	0.616	4.7	34	18	18
0.37	0.616	4.7	34	18	18
0.524	0.645	4.53	120	132	94
0.524	0.645	4.53	120	132	94
2.11	9.67	19.8	239	185	141
0.608	1.18	4.8	211	143	78
1.67	5.44	12	238	182	135
2.61	9.63	19.2	224	170	126
2.76	8.87	17.5	242	184	144
0.707	0.47	3.36	211	158	116
2.11	3.35	7.16	242	189	149
2.27	3.66	7.58	225	176	136
2.27	3.66	7.58	225	176	136
3.1	5.33	9.58	194	147	117
1.42	1.1	3.69	218	169	129
2.31	2.48	4.65	194	153	121
1.95	1.65	3.63	217	171	135
2.8	3.31	5.12	184	147	118
-1.1	-0.0916	1.84	136	103	86
-1.07	-0.119	1.83	153	115	96
-1.08	-0.0698	2.03	157	112	89
-1.09	-0.00707	2.28	164	118	92
-1.14	0.0591	2.41	167	123	96
-1.07	-0.0067	2.32	166	121	92
-1.04	-0.0335	2.27	172	128	99
-0.997	-0.0815	2.19	149	121	107
-1.12	0.123	2.67	163	118	89
-1.07	0.0724	2.57	161	119	94
-1.06	0.0781	2.61	173	129	100
-1.07	0.092	2.65	162	118	91
-1.14	0.192	2.86	177	134	100
-1.04	0.116	2.75	178	134	105
-1.06	0.186	2.93	170	125	94
-1.05	0.21	3.01	171	126	95
-1.12	0.319	3.25	183	140	106
-0.773	-0.199	2.18	167	139	125
-1.23	0.541	3.76	208	164	125
-1.05	0.307	3.27	168	124	95
-1.15	0.546	3.82	205	161	124
-1.1	0.495	3.73	178	133	94
-1.11	0.519	3.77	213	169	132
-1.93	2.05	7.17	166	120	87
-0.705	-0.027	2.68	151	137	128
-1.43	1.37	5.72	146	102	73
-0.979	0.553	3.93	182	147	125
-1.26	1.21	5.38	191	152	121
-0.729	0.152	3.09	157	139	129
-0.947	0.636	4.14	187	153	128
-1.3	1.4	5.8	176	131	100
-0.867	0.497	3.84	158	131	114
-0.846	0.489	3.82	168	149	134
-0.861	0.616	4.12	175	148	129
-1.11	1.38	5.79	191	154	127
-0.696	0.603	4.12	149	134	115
-0.712	0.713	4.36	141	120	103
-0.99	1.58	6.23	171	126	85
-0.871	1.7	6.45	188	145	110
-0.88	2.43	7.97	191	146	107
-0.517	1.21	5.39	178	142	108
-0.517	1.21	5.39	178	142	108
-0.331	0.126	4	98	114	87
-0.293	0.467	4.49	129	114	111
-0.216	0.552	4.65	133	116	109
-0.216	0.552	4.65	133	116	109
-0.176	0.614	4.75	140	120	111
-0.14	0.0253	4.05	114	108	108
-0.099	-0.224	3.68	76	100	112
-0.367	5.49	13.8	183	130	80
-0.0828	0.0453	4.11	118	109	110
-0.0488	0.108	4.2	123	113	112
-0.0718	6.82	16.3	218	169	126
0.118	0.442	4.63	124	107	97
0.155	0.72	4.91	140	117	109
0.151	0.377	4.56	115	95	94
0.7	6.81	15.7	184	130	84
0.28	0.136	4.27	29	14	11
0.28	0.136	4.27	29	14	11
0.367	0.348	4.45	149	143	147
0.403	0.284	4.34	150	139	145
0.403	0.284	4.34	150	139	145
0.5	0.00481	4.01	49	30	24
0.608	1.25	4.92	253	181	123
0.545	0.215	4.11	170	159	163
1.55	4.91	11.1	156	102	55
1.61	4.96	11.2	213	161	114
1.47	4.26	9.85	236	182	135
2.24	7.05	14.5	172	123	83
3.01	8.87	17.2	228	174	130
0.72	0.488	3.38	223	170	130
2.28	4.24	8.76	224	171	131
2.44	4.46	8.94	226	173	129
2.36	4.03	8.18	226	174	134
1.01	0.537	3.17	233	178	137
1.24	1.08	3.93	214	165	125
1.29	1.15	4	239	185	147
1.78	2.08	5.06	211	163	125
1.38	1.1	3.76	242	189	149
2.49	3.39	6.48	217	172	133
2.49	3.39	6.48	217	172	133
3.22	4.99	8.43	203	160	126
1.95	2.07	4.69	174	128	92
-1.1	-0.116	1.72	129	95	83
-1.08	-0.0935	1.92	137	98	83
-1.15	0.0016	2.17	169	130	101
-1.08	-0.0524	2.13	166	124	99
-1.09	-0.0314	2.17	164	120	95
-1.11	-0.00188	2.25	165	121	94
-1.05	-0.0493	2.21	170	126	99
-0.992	-0.0928	2.16	136	107	91
-0.992	-0.0928	2.16	136	107	91
-1	-0.0576	2.25	151	110	92
-0.983	-0.0643	2.27	151	123	111
-1.05	0.0845	2.65	165	120	91
-1.14	0.211	2.91	177	134	100
-1.05	0.166	2.88	180	135	102
-0.776	-0.214	2.12	156	132	122
-1.05	0.308	3.27	168	124	95
-0.686	-0.213	2.23	167	139	127
-1.04	0.754	4.38	182	148	123
-0.999	0.681	4.23	173	139	114
-0.967	0.65	4.16	177	141	117
-0.68	0.0881	2.97	126	105	100
-0.835	0.459	3.76	153	134	120
-1.38	1.89	6.9	140	94	61
-1.2	1.7	6.48	190	148	108
-1.39	2.36	7.92	180	132	94
-1.32	2.26	7.69	154	105	73
-0.424	-0.474	2.44	50	78	92
-0.955	1.5	6.05	187	147	112
-1.86	4.59	12.7	179	136	101
-0.371	0.54	4.51	130	111	105
-0.186	0.172	4.19	77	62	57
-0.0721	0.0251	4.09	44	40	41
-0.0566	1.16	5.43	65	86	67
-0.00321	0.462	4.64	141	130	138
0.00699	0.667	4.87	28	4	2
0.0561	0.738	4.95	143	121	110
0.596	13.5	28.8	214	160	122
0.206	0.405	4.57	144	134	143
0.224	0.679	4.85	150	133	139
0.272	0.44	4.58	111	95	80
0.261	0.104	4.24	141	122	115
0.3	0.356	4.49	20	6	5
0.3	0.356	4.49	20	6	5
1.07	7.71	17	234	181	139
1.07	7.71	17	234	181	139
0.377	0.322	4.41	144	124	125
0.377	0.322	4.41	144	124	125
0.46	0.00714	4.04	37	19	15
0.499	0.292	4.26	166	155	161
0.499	0.292	4.26	166	155	161
2.34	7.87	16	209	165	126
1.48	4.27	9.87	232	178	131
0.58	0.356	3.25	227	170	127
0.628	0.437	3.37	220	167	125
0.578	0.184	2.94	206	156	119
2.74	7.29	14.3	142	94	56
3.13	6.39	11.8	225	172	130
2.15	3.35	7.17	223	168	129
2.03	2.76	6.06	233	179	133
2.84	4.43	8.03	172	128	83
1.03	0.275	2.65	218	171	145
1.44	0.697	2.78	179	144	122
-1.14	-0.0616	1.85	167	133	108
-1.1	-0.0848	1.89	142	107	88
-1.11	-0.0683	1.97	148	110	89
-1.13	-0.0239	2.1	152	112	87
-1.06	-0.0623	2.12	159	115	90
-0.972	-0.135	2.05	142	113	99
-1.08	0.0055	2.35	173	129	102
-1.09	0.0231	2.38	156	111	88
-1.06	0.0125	2.4	161	114	88
-0.823	-0.219	2.04	157	130	119
-0.793	-0.229	2.05	161	138	130
-0.862	-0.0466	2.48	181	149	128
-0.804	-0.0623	2.5	175	148	131
-0.735	-0.115	2.43	188	157	137
-1.14	0.684	4.18	154	117	90
-0.702	-0.0978	2.51	185	154	134
-1.19	0.888	4.65	155	109	83
-1.21	1.01	4.93	182	147	119
-0.986	0.885	4.7	181	145	119
-1.35	2.08	7.31	172	128	93
-1.13	3.6	10.4	201	154	112
-0.342	0.569	4.58	119	104	99
-0.293	0.276	4.25	105	119	93
-1.33	8.53	20.4	158	108	71
-0.0542	0.214	4.32	106	115	88
-0.056	0.622	4.81	140	120	109
0.0463	0.779	5	143	119	109
0.0556	0.256	4.41	110	121	89
0.0709	0.519	4.71	146	135	143
0.193	4.28	11.1	214	158	109
0.253	0.668	4.83	47	32	29
0.253	0.668	4.83	47	32	29
0.27	0.576	4.73	81	64	57
0.319	0.324	4.45	153	143	151
0.326	0.419	4.53	156	146	154
1.73	11.6	24	216	162	116
0.39	0.146	4.24	155	148	155
1.33	2.75	7.11	233	173	123
1.15	2.06	5.97	208	151	108
1.25	2.11	5.93	231	177	131
0.687	0.175	2.83	231	178	144
0.996	0.96	4.01	221	169	130
1.07	0.281	2.6	209	165	140
2.57	3.47	6.49	176	132	95
-1.11	0.0225	2.35	167	125	100
-1.06	0.0521	2.53	177	134	100
-0.704	-0.255	2.1	165	145	138
-1.02	0.34	3.39	171	126	97
-1.02	0.34	3.39	171	126	97
-1.17	1.47	5.99	194	155	122
-0.321	0.047	3.89	124	115	110
-0.125	-0.667	1.79	168	198	234
-0.0916	-0.185	3.79	44	50	48
0.133	-0.151	3.96	179	139	127
0.288	1.13	5.26	164	145	147
0.288	1.13	5.26	164	145	147
0.325	0.0274	4.13	155	149	159
0.418	0.00549	4.07	157	150	158
0.418	0.00549	4.07	157	150	158
1.04	0.378	2.84	229	176	142
1.12	0.301	2.59	205	163	138
2.04	1.99	4.27	215	171	136
2.04	1.99	4.27	215	171	136
-0.81	-0.0955	2.41	150	123	112
-0.245	0.913	5.09	52	83	65
0.234	0.45	4.62	91	73	63
0.235	0.518	4.68	155	145	153
2.54	4.92	9.72	160	111	78
1.32	1.16	3.98	221	172	132
-1.25	0.717	4.21	221	172	132
-1.59	1.76	6.61	175	132	98
-0.193	0.555	4.66	136	118	106
0.196	1.01	5.22	160	144	147
0.235	1.56	5.77	236	175	121
0.412	-0.0493	4	58	91	74
0.516	-0.0231	3.91	166	159	166
-0.22	-0.0823	3.82	129	132	151
-0.0742	0.332	4.44	147	141	151
0.365	-0.0255	4.04	48	87	69
-0.81	-0.00766	2.64	179	148	130
